# xmcd
#
# Track frame offsets:
#	150
#	45017
#	79292
#	91902
#	130887
#	166682
#	187332
#	211842
#	235215
#	263815
#
# Disc length: 3938 seconds
#
# Revision: 1
# Processed by: cddbd v1.5.1PL0 Copyright (c) Steve Scherf et al.
# Submitted via: CDex 1.50Beta5
#
DISCID=7b0f600a
DTITLE=牧野真理子 - ミュージックセラピー
DYEAR=1900
DGENRE=Classical
TTITLE0=シュトラウス:美しき青きドナウ
TTITLE1=モーツアルト:ピアノ協奏曲23番2楽章
TTITLE2=シューマン:森の風景
TTITLE3=ポンキエルリ:時の踊り
TTITLE4=ドヴォルザーク:アメリカ
TTITLE5=ショパン:雨だれ
TTITLE6=ヘンデル:調子のよい鍛冶屋
TTITLE7=バッハ:ブランデンブルク協奏曲
TTITLE8=モーツァルト:クラリネット五重奏曲
TTITLE9=ベートーヴェン:春
EXTD=
EXTT0=
EXTT1=
EXTT2=
EXTT3=
EXTT4=
EXTT5=
EXTT6=
EXTT7=
EXTT8=
EXTT9=
PLAYORDER=
